<svg width="130" height="130" viewBox="0 0 130 130" fill="none" xmlns="http://www.w3.org/2000/svg">
<g filter="url(#filter0_d_8_20)">
<rect x="4" width="122" height="122" rx="20" fill="url(#paint0_linear_8_20)"/>
</g>
<g clip-path="url(#clip0_8_20)">
<path d="M109 93.156C107.719 93.6404 106.305 93.6394 105.025 93.153C103.745 92.6667 102.688 91.7287 102.052 90.516L89.4017 73.0223L87.5684 70.5767L72.8907 90.538C72.293 91.6998 71.2926 92.6041 70.0765 93.0819C68.8605 93.5597 67.5121 93.5782 66.2834 93.134L85.196 67.7607L67.6034 44.8403C68.8683 44.3845 70.2518 44.3784 71.5207 44.8232C72.7896 45.268 73.8665 46.1365 74.57 47.2823L87.682 64.9923L100.867 47.3557C101.47 46.2146 102.47 45.3346 103.679 44.883C104.888 44.4314 106.22 44.4397 107.423 44.9063L100.596 53.9667L91.3487 66.0043C91.0919 66.2334 90.8864 66.5142 90.7457 66.8282C90.605 67.1423 90.5323 67.4825 90.5323 67.8267C90.5323 68.1708 90.605 68.511 90.7457 68.8251C90.8864 69.1392 91.0919 69.4199 91.3487 69.649L108.963 93.1597L109 93.156ZM21.0074 67.4453L22.5474 59.837C26.7787 44.7927 44.0267 38.5337 55.892 47.847C62.8404 53.3067 64.5747 61.036 64.2337 69.748H25.092C24.4577 85.3057 35.685 94.6997 50.04 89.9C52.3671 89.0624 54.4501 87.6605 56.1023 85.8202C57.7546 83.9798 58.9245 81.7583 59.5074 79.3547C60.2664 76.9127 61.5167 76.4947 63.812 77.1987C63.4295 80.1774 62.3766 83.0306 60.7323 85.5437C59.088 88.0568 56.8953 90.1643 54.319 91.7077C50.0636 94.0354 45.1811 94.958 40.3696 94.3435C35.5582 93.7291 31.0643 91.6091 27.5304 88.2867C24.0361 84.3538 21.9243 79.3858 21.517 74.1407C21.517 73.279 21.2237 72.4723 21.0257 71.6987C21.0078 70.2822 20.9993 68.8656 21 67.449L21.0074 67.4453ZM25.1397 66.3967H60.5377C60.3177 55.118 53.2007 47.1173 43.7077 47.044C33.1404 46.8973 25.5797 54.722 25.114 66.3453L25.1397 66.3967Z" fill="white"/>
</g>
<defs>
<filter id="filter0_d_8_20" x="0" y="0" width="130" height="130" filterUnits="userSpaceOnUse" color-interpolation-filters="sRGB">
<feFlood flood-opacity="0" result="BackgroundImageFix"/>
<feColorMatrix in="SourceAlpha" type="matrix" values="0 0 0 0 0 0 0 0 0 0 0 0 0 0 0 0 0 0 127 0" result="hardAlpha"/>
<feOffset dy="4"/>
<feGaussianBlur stdDeviation="2"/>
<feComposite in2="hardAlpha" operator="out"/>
<feColorMatrix type="matrix" values="0 0 0 0 0 0 0 0 0 0 0 0 0 0 0 0 0 0 0.25 0"/>
<feBlend mode="normal" in2="BackgroundImageFix" result="effect1_dropShadow_8_20"/>
<feBlend mode="normal" in="SourceGraphic" in2="effect1_dropShadow_8_20" result="shape"/>
</filter>
<linearGradient id="paint0_linear_8_20" x1="14.5" y1="6" x2="115.5" y2="118.5" gradientUnits="userSpaceOnUse">
<stop/>
<stop offset="1" stop-color="#717171"/>
</linearGradient>
<clipPath id="clip0_8_20">
<rect width="88" height="88" fill="white" transform="translate(21 25)"/>
</clipPath>
</defs>
</svg>
