<svg width="130" height="130" viewBox="0 0 130 130" fill="none" xmlns="http://www.w3.org/2000/svg">
<g filter="url(#filter0_d_8_26)">
<rect x="4" width="122" height="122" rx="20" fill="url(#paint0_linear_8_26)"/>
</g>
<path d="M106.232 40.7967L109 33.621L108.886 33.1773L81.4853 40.3897C84.4077 36.162 83.403 32.7703 83.403 32.7703C83.403 32.7703 74.6507 38.3583 68.0287 38.2153C61.414 38.0687 59.2763 36.3087 49.127 39.5427C38.9777 42.7767 36.1067 52.706 33.1733 54.8437C30.2253 56.9813 21 63.926 21 63.926L21.022 64.0507L29.3453 61.396C29.3453 61.396 27.0647 63.541 22.2137 70.086L21.9863 69.877L21.9937 69.9173C21.9937 69.9173 25.895 75.8793 29.7193 74.772C30.166 74.6313 30.5992 74.4509 31.0137 74.233C32.55 75.091 34.5593 75.9307 36.7777 76.158C36.7777 76.158 35.2743 74.4163 34.0203 72.429L34.893 71.8643L38.0647 73.0303L37.7127 70.053C37.7237 70.042 37.7347 70.042 37.742 70.031L40.855 71.1713L40.47 68.4653C40.8573 68.2598 41.2511 68.0666 41.6507 67.886L44.8957 55.621L58.323 46.4653L57.256 49.153C54.539 55.8483 49.4277 57.425 49.4277 57.425L47.2937 58.2317C45.706 60.109 45.0423 60.5673 44.4923 66.8593C45.7683 66.5367 46.993 66.467 48.1003 66.7567C53.835 68.3003 55.826 75.2157 54.2787 77.1223C53.8973 77.599 52.9733 78.4203 51.811 79.3847H49.49L49.4607 81.2693L49.2223 81.4563H46.8573L46.8243 83.3043L46.201 83.77C43.9753 83.8103 41.1667 81.8707 41.1667 81.8707C41.1667 83.6343 42.637 86.3623 42.637 86.3623L42.8937 86.2377L42.67 86.4027C42.67 86.4027 48.6283 90.3737 52.372 88.8997C55.7087 87.5943 64.3363 80.7853 71.7907 77.5587L94.3407 71.6187L97.3143 63.9187L80.125 68.447V61.5207L100.292 56.2113L103.265 48.5113L80.1287 54.6053V47.679L106.232 40.7967ZM65.3007 55.4633L70.6503 54.0553L70.7237 54.3267L69.0553 58.6497L63.5077 60.109L65.3007 55.4633ZM67.145 64.7253L61.601 66.1847L63.394 61.5427L68.7437 60.131L68.817 60.4023L67.145 64.7253ZM74.372 63.1707L68.8243 64.63L70.621 59.988L75.9707 58.5763L76.044 58.844L74.372 63.1707Z" fill="white"/>
<defs>
<filter id="filter0_d_8_26" x="0" y="0" width="130" height="130" filterUnits="userSpaceOnUse" color-interpolation-filters="sRGB">
<feFlood flood-opacity="0" result="BackgroundImageFix"/>
<feColorMatrix in="SourceAlpha" type="matrix" values="0 0 0 0 0 0 0 0 0 0 0 0 0 0 0 0 0 0 127 0" result="hardAlpha"/>
<feOffset dy="4"/>
<feGaussianBlur stdDeviation="2"/>
<feComposite in2="hardAlpha" operator="out"/>
<feColorMatrix type="matrix" values="0 0 0 0 0 0 0 0 0 0 0 0 0 0 0 0 0 0 0.25 0"/>
<feBlend mode="normal" in2="BackgroundImageFix" result="effect1_dropShadow_8_26"/>
<feBlend mode="normal" in="SourceGraphic" in2="effect1_dropShadow_8_26" result="shape"/>
</filter>
<linearGradient id="paint0_linear_8_26" x1="14.5" y1="6" x2="115.5" y2="118.5" gradientUnits="userSpaceOnUse">
<stop/>
<stop offset="1" stop-color="#717171"/>
</linearGradient>
</defs>
</svg>
