<svg width="130" height="130" viewBox="0 0 130 130" fill="none" xmlns="http://www.w3.org/2000/svg">
<g filter="url(#filter0_d_9_96)">
<rect x="4" width="122" height="122" rx="20" fill="url(#paint0_linear_9_96)"/>
</g>
<path d="M79.124 49.9303H62.3013V17H79.124C88.2027 17 95.5873 24.3847 95.5873 33.4633C95.5873 42.542 88.2027 49.9303 79.124 49.9303ZM67.695 44.5367H79.124C85.229 44.5367 90.1937 39.5683 90.1937 33.467C90.1937 27.3657 85.2253 22.3973 79.124 22.3973H67.695V44.5367ZM67.695 49.9303H50.876C41.7973 49.9303 34.4127 42.5457 34.4127 33.467C34.4127 24.3883 41.7973 17 50.876 17H67.6987V49.9303H67.695ZM50.876 22.3937C44.771 22.3937 39.8063 27.362 39.8063 33.4633C39.8063 39.5647 44.771 44.5367 50.876 44.5367H62.305V22.3937H50.876ZM67.695 77.4633H50.876C41.7973 77.4633 34.4127 70.0787 34.4127 61C34.4127 51.9213 41.7973 44.5367 50.876 44.5367H67.6987V77.4633H67.695ZM50.876 49.9303C44.771 49.9303 39.8063 54.8987 39.8063 61C39.8063 67.1013 44.7747 72.0697 50.876 72.0697H62.305V49.9303H50.876ZM50.964 105C41.8377 105 34.409 97.6153 34.409 88.5367C34.409 79.458 41.7937 72.0733 50.8723 72.0733H67.695V88.357C67.695 97.5347 60.1893 105 50.964 105ZM50.876 77.4633C47.9413 77.4672 45.128 78.6347 43.0528 80.7099C40.9777 82.785 39.8102 85.5983 39.8063 88.533C39.8063 94.638 44.8113 99.6027 50.9677 99.6027C57.2193 99.6027 62.3087 94.5573 62.3087 88.3533V77.4633H50.876ZM79.124 77.4633H78.7647C69.686 77.4633 62.3013 70.0787 62.3013 61C62.3013 51.9213 69.686 44.5367 78.7647 44.5367H79.124C88.2027 44.5367 95.5873 51.9213 95.5873 61C95.5873 70.0787 88.2027 77.4633 79.124 77.4633ZM78.7683 49.9303C72.6633 49.9303 67.6987 54.8987 67.6987 61C67.6987 67.1013 72.667 72.0697 78.7683 72.0697H79.1277C85.2327 72.0697 90.1973 67.1013 90.1973 61C90.1973 54.8987 85.2253 49.9303 79.124 49.9303H78.7683Z" fill="white"/>
<defs>
<filter id="filter0_d_9_96" x="0" y="0" width="130" height="130" filterUnits="userSpaceOnUse" color-interpolation-filters="sRGB">
<feFlood flood-opacity="0" result="BackgroundImageFix"/>
<feColorMatrix in="SourceAlpha" type="matrix" values="0 0 0 0 0 0 0 0 0 0 0 0 0 0 0 0 0 0 127 0" result="hardAlpha"/>
<feOffset dy="4"/>
<feGaussianBlur stdDeviation="2"/>
<feComposite in2="hardAlpha" operator="out"/>
<feColorMatrix type="matrix" values="0 0 0 0 0 0 0 0 0 0 0 0 0 0 0 0 0 0 0.25 0"/>
<feBlend mode="normal" in2="BackgroundImageFix" result="effect1_dropShadow_9_96"/>
<feBlend mode="normal" in="SourceGraphic" in2="effect1_dropShadow_9_96" result="shape"/>
</filter>
<linearGradient id="paint0_linear_9_96" x1="14.5" y1="6" x2="115.5" y2="118.5" gradientUnits="userSpaceOnUse">
<stop offset="0.153846"/>
<stop offset="0.375" stop-color="#442880"/>
<stop offset="0.673077" stop-color="#F24E1E"/>
<stop offset="1" stop-color="#24C870"/>
</linearGradient>
</defs>
</svg>
