<svg width="130" height="130" viewBox="0 0 130 130" fill="none" xmlns="http://www.w3.org/2000/svg">
<g filter="url(#filter0_d_1_31)">
<rect x="4" width="122" height="122" rx="20" fill="url(#paint0_linear_1_31)"/>
</g>
<g clip-path="url(#clip0_1_31)">
<path d="M21 20C21 18.3431 22.3431 17 24 17H106C107.657 17 109 18.3431 109 20V102C109 103.657 107.657 105 106 105H24C22.3431 105 21 103.657 21 102V20ZM101.709 83.8914C101.728 83.9204 101.773 83.9021 101.767 83.8675C101.086 79.9159 98.4421 76.5859 90.7803 73.4777C88.1693 72.2537 85.2767 71.3902 84.2847 69.4922C84.2181 69.3649 84.1716 69.2281 84.1352 69.0891C83.8525 68.0096 83.8191 67.3855 84.0227 66.7127C84.5727 64.344 87.3777 63.6327 89.5777 64.2927C90.0632 64.4421 90.5361 64.6676 90.9814 64.9692C92.49 65.991 94.5168 66.6986 96.0457 65.7074C96.4078 65.4726 96.7157 65.2743 97.0132 65.0844C98.424 64.1838 98.9387 62.2413 97.8176 60.9985C97.696 60.8637 97.5727 60.7355 97.4427 60.6077C95.1327 58.0227 92.0563 56.7027 87.0513 56.8163L84.4663 57.1427C81.9877 57.7477 79.6263 59.0677 78.1963 60.8277C74.0163 65.5613 75.2227 73.8113 80.2827 77.2213C85.2877 80.9613 92.6063 81.7827 93.5413 85.3063C94.4213 89.5963 90.3513 90.9713 86.3327 90.4763C84.2956 90.0242 82.8814 89.1832 81.6092 87.8143C80.5305 86.6535 78.8269 86.1926 77.4528 86.9818L75.5202 88.0917C74.1929 88.854 73.6266 90.5279 74.5986 91.7103C75.048 92.2569 75.5573 92.7973 76.1577 93.4977C82.5377 99.9363 98.4877 99.6063 101.351 89.8163C101.456 89.4911 102.209 87.2966 101.648 83.9169C101.643 83.882 101.688 83.8622 101.709 83.8914V83.8914ZM68.839 57.6523C68.8469 57.5414 68.759 57.447 68.6478 57.447H63.611C61.9541 57.447 60.6111 58.7902 60.6092 60.447C60.6024 66.5433 60.578 72.6173 60.578 78.732C60.578 83.2493 60.809 87.3963 60.072 88.6723C58.9223 91.0727 56.0514 90.9011 54.5539 90.4975C54.4034 90.4569 54.2589 90.3987 54.1216 90.3247C52.8055 89.6156 52.0991 88.6538 51.2867 87.2973C51.2846 87.2939 51.2825 87.2904 51.2805 87.287C50.9949 86.81 50.5704 86.7332 50.0971 87.0249L46.4361 89.2817C45.1259 90.0893 44.6095 91.7839 45.5156 93.028C46.4682 94.3359 47.6279 95.4509 48.984 96.266C52.119 98.136 56.332 98.741 60.743 97.751C63.614 96.9223 66.089 95.2173 67.3833 92.5773C69.2533 89.1673 68.8573 84.9873 68.839 80.3087C68.883 72.7773 68.839 65.2423 68.839 57.6523V57.6523Z" fill="white"/>
</g>
<defs>
<filter id="filter0_d_1_31" x="0" y="0" width="130" height="130" filterUnits="userSpaceOnUse" color-interpolation-filters="sRGB">
<feFlood flood-opacity="0" result="BackgroundImageFix"/>
<feColorMatrix in="SourceAlpha" type="matrix" values="0 0 0 0 0 0 0 0 0 0 0 0 0 0 0 0 0 0 127 0" result="hardAlpha"/>
<feOffset dy="4"/>
<feGaussianBlur stdDeviation="2"/>
<feComposite in2="hardAlpha" operator="out"/>
<feColorMatrix type="matrix" values="0 0 0 0 0 0 0 0 0 0 0 0 0 0 0 0 0 0 0.25 0"/>
<feBlend mode="normal" in2="BackgroundImageFix" result="effect1_dropShadow_1_31"/>
<feBlend mode="normal" in="SourceGraphic" in2="effect1_dropShadow_1_31" result="shape"/>
</filter>
<linearGradient id="paint0_linear_1_31" x1="14.5" y1="6" x2="115.5" y2="118.5" gradientUnits="userSpaceOnUse">
<stop stop-color="#F7DF1E"/>
<stop offset="1" stop-color="#83760F"/>
</linearGradient>
<clipPath id="clip0_1_31">
<rect width="88" height="88" fill="white" transform="translate(21 17)"/>
</clipPath>
</defs>
</svg>
