<svg width="130" height="130" viewBox="0 0 130 130" fill="none" xmlns="http://www.w3.org/2000/svg">
<g filter="url(#filter0_d_8_36)">
<rect x="4" width="122" height="122" rx="20" fill="url(#paint0_linear_8_36)"/>
</g>
<g clip-path="url(#clip0_8_36)">
<path d="M72.8137 25.1723C72.1794 25.1723 71.5891 25.308 71.0427 25.4913C72.2014 26.2613 72.8394 27.288 73.1547 28.4467C73.1804 28.6043 73.2244 28.718 73.2464 28.8757C73.2736 29.011 73.2896 29.1484 73.2941 29.2863C73.3821 31.2847 72.7697 31.5377 72.3407 32.7183C71.6807 34.24 71.8641 35.8753 72.6561 37.1917C72.7286 37.3682 72.8195 37.5366 72.9274 37.694C72.0657 31.9447 76.8617 31.083 77.7454 29.2863C77.8151 27.717 76.5207 26.672 75.4977 25.946C74.6938 25.4408 73.7632 25.1739 72.8137 25.176V25.1723ZM80.0407 26.4667C79.9527 26.991 80.0187 26.8553 79.9967 27.1267C79.9747 27.31 79.9747 27.5373 79.9527 27.717C79.9051 27.9003 79.8611 28.0837 79.7914 28.2633C79.7474 28.4467 79.6814 28.63 79.6081 28.8097L79.3624 29.3303C79.2891 29.422 79.2487 29.5137 79.1791 29.6053L79.0434 29.807C78.9352 29.9626 78.8215 30.1143 78.7024 30.2617C78.5667 30.401 78.4531 30.5587 78.2917 30.6723V30.6943C78.1561 30.808 78.0204 30.9437 77.8591 31.061C77.3824 31.424 76.8397 31.6953 76.3374 32.0363C76.1797 32.1463 76.0184 32.2417 75.8827 32.3773C75.7285 32.4858 75.5837 32.6073 75.4501 32.7403C75.2924 32.876 75.1787 33.0117 75.0431 33.173C74.9294 33.3087 74.7937 33.4663 74.7021 33.6277C74.5879 33.7812 74.4815 33.9403 74.3831 34.1043C74.2914 34.2877 74.2254 34.4453 74.1337 34.625C74.0641 34.8083 73.9981 34.966 73.9504 35.1493C73.8903 35.3366 73.8377 35.5262 73.7927 35.7177C73.7707 35.8093 73.7707 35.923 73.7487 36.011C73.7231 36.1027 73.7231 36.1943 73.7011 36.286C73.7011 36.4693 73.6791 36.671 73.6791 36.8543C73.6791 36.99 73.6791 37.1257 73.7011 37.2613C73.7011 37.4447 73.7231 37.628 73.7707 37.8297C73.7927 38.013 73.8367 38.1963 73.8807 38.3797C73.9541 38.5593 73.9981 38.739 74.0641 38.9223C74.1117 39.0323 74.1777 39.1497 74.2254 39.2413L68.9967 37.2173C68.1131 36.968 67.2477 36.7407 66.3604 36.5353L64.9304 36.1943C63.5664 35.923 62.1804 35.7177 60.7944 35.582C60.7467 35.582 60.7247 35.56 60.6807 35.56C58.3387 35.3254 55.9807 35.2947 53.6334 35.4683C52.2474 35.56 50.8614 35.7397 49.4754 35.967C48.4454 36.1445 47.4218 36.3573 46.4064 36.605L45.3834 36.8763C45.0461 37.012 44.7234 37.1697 44.4081 37.309L43.6564 37.65C43.6124 37.672 43.5684 37.672 43.5464 37.694C43.3154 37.8077 43.1137 37.8993 42.9084 38.013C42.6132 38.1432 42.3244 38.2876 42.0431 38.4457C41.8854 38.5117 41.7277 38.6033 41.5884 38.673C41.5233 38.7134 41.456 38.7501 41.3867 38.783C41.1814 38.9003 40.9761 39.014 40.7927 39.1277C40.6056 39.2311 40.4244 39.3449 40.2501 39.4687C40.0887 39.5787 39.9311 39.6703 39.7954 39.784C39.7734 39.8097 39.7477 39.8097 39.7257 39.8317C39.5901 39.9233 39.4324 40.037 39.2931 40.1507L39.2491 40.1947L38.9081 40.466C38.8641 40.4917 38.8164 40.5357 38.7724 40.5577C38.6587 40.6493 38.5451 40.763 38.4314 40.851C38.4094 40.8987 38.3617 40.9243 38.3397 40.9427C38.2041 41.082 38.0684 41.1957 37.9327 41.3313C37.9071 41.3313 37.9071 41.3533 37.8851 41.3753C37.7438 41.4988 37.608 41.6285 37.4781 41.764C37.4524 41.786 37.4524 41.808 37.4304 41.808C37.3111 41.9248 37.1973 42.0472 37.0894 42.1747C37.0454 42.2187 36.9794 42.2627 36.9317 42.3067C36.81 42.4507 36.6802 42.5878 36.5431 42.7173C36.5211 42.7613 36.4771 42.787 36.4551 42.8273C36.2717 43.0107 36.1141 43.194 35.9307 43.3773L35.8647 43.4433C35.4981 43.832 35.1131 44.217 34.7024 44.558C34.2954 44.9247 33.8627 45.262 33.4301 45.559C32.5614 46.1795 31.6238 46.6975 30.6361 47.1027C30.1594 47.308 29.6571 47.4913 29.1584 47.649C28.2051 47.8543 27.2261 48.2393 26.3864 48.309C26.2031 48.309 26.0014 48.353 25.8181 48.375L25.2497 48.5107L24.7034 48.716C24.5201 48.7857 24.3404 48.8773 24.1607 48.9653C23.9994 49.079 23.8197 49.1707 23.6584 49.2843C23.4966 49.4014 23.3446 49.5314 23.2037 49.673C23.0461 49.783 22.8847 49.9443 22.7491 50.08C22.6134 50.2377 22.4777 50.3733 22.3641 50.5347C22.2504 50.718 22.1147 50.8757 22.0231 51.059C21.9036 51.2242 21.797 51.3982 21.7041 51.5797C21.6124 51.785 21.5207 51.9683 21.4547 52.17C21.3851 52.3533 21.3191 52.5587 21.2494 52.7603C21.2054 52.9437 21.1577 53.127 21.1394 53.3103C21.1394 53.3287 21.1137 53.3543 21.1137 53.3763C21.0697 53.5817 21.0697 53.853 21.0441 53.9887C21.0221 54.15 21.0001 54.282 21.0001 54.4433C20.9959 54.8387 21.089 55.2291 21.2714 55.58V55.602C21.3411 55.7377 21.4327 55.877 21.5244 56.0127C21.6124 56.1483 21.7077 56.284 21.8177 56.4197C21.9314 56.5333 22.0671 56.6727 22.2064 56.7863C22.3389 56.9192 22.4824 57.0407 22.6354 57.1493C23.1817 57.626 23.3174 57.7837 24.0214 58.1467C24.1351 58.2163 24.2487 58.2603 24.3881 58.33C24.4101 58.33 24.4321 58.352 24.4541 58.352C24.4541 58.3997 24.4541 58.4217 24.4761 58.4657C24.5292 58.8404 24.6277 59.2074 24.7694 59.5583C24.8427 59.694 24.8867 59.8297 24.9527 59.9653C24.9784 60.013 25.0004 60.057 25.0261 60.079C25.1141 60.2623 25.2057 60.42 25.2937 60.5813L25.6347 61.058C25.7484 61.1937 25.8877 61.3513 26.0234 61.4907C26.1591 61.6263 26.2947 61.74 26.4561 61.8757C26.4561 61.8757 26.4781 61.8977 26.5001 61.8977C26.6357 62.0113 26.7714 62.125 26.9107 62.2167C27.0689 62.3276 27.2356 62.4257 27.4094 62.51C27.5671 62.6017 27.7504 62.6933 27.9301 62.763C28.0766 62.8291 28.2288 62.8819 28.3847 62.9207C28.4104 62.9427 28.4324 62.9427 28.4764 62.9647C28.5681 62.9903 28.6817 63.0123 28.7697 63.0343C28.7037 64.2627 28.6817 65.4177 28.8651 65.8283C29.0667 66.283 30.0677 64.897 31.0651 63.3057C30.9331 64.875 30.8414 66.7157 31.0651 67.262C31.3181 67.8303 32.6784 66.0557 33.8627 64.1013C49.9777 60.376 64.6811 71.508 66.2247 87.238C65.9314 84.7813 62.9064 83.421 61.5204 83.762C60.8384 85.4413 59.6797 87.601 57.8171 88.943C57.9747 87.4397 57.9087 85.8997 57.5897 84.3963C57.0808 86.4889 56.1182 88.4442 54.7701 90.1237C52.6141 90.2813 50.4544 89.2363 49.3177 87.667C49.2261 87.601 49.2041 87.4653 49.1344 87.3737C49.0684 87.216 48.9987 87.0547 48.9511 86.897C48.8851 86.7448 48.8395 86.5845 48.8154 86.4203C48.7934 86.259 48.7934 86.1013 48.7934 85.918V85.577C48.8205 85.4157 48.8585 85.2565 48.9071 85.1003C48.9547 84.9427 48.9987 84.785 49.0684 84.6237C49.1564 84.466 49.2261 84.3047 49.3397 84.147C49.7247 83.0543 49.7247 82.167 49.0207 81.6463C48.884 81.5571 48.7391 81.481 48.5881 81.419C48.5001 81.397 48.3864 81.353 48.2947 81.3273L48.1114 81.2613C47.9558 81.2109 47.7964 81.1729 47.6347 81.1477C47.4799 81.1023 47.3194 81.0789 47.1581 81.078C46.993 81.0521 46.8264 81.0374 46.6594 81.034C46.5457 81.034 46.4321 81.056 46.3184 81.056C46.1485 81.0551 45.9793 81.0785 45.8161 81.1257C45.6584 81.1477 45.5007 81.1697 45.3394 81.2137C45.1772 81.2572 45.018 81.3111 44.8627 81.375C44.7051 81.441 44.5694 81.5107 44.4081 81.5803C44.2724 81.6463 44.1367 81.738 43.9754 81.8077C38.6807 85.2617 41.8414 93.3503 45.4531 95.6933C44.0891 95.9427 42.7031 96.236 42.3181 96.533L42.2704 96.577C43.2494 97.1673 44.2724 97.6697 45.3394 98.1023C46.7951 98.579 48.3387 99.008 49.0207 99.1913V99.2133C50.9037 99.6 52.8292 99.7381 54.7481 99.624C64.8167 98.92 73.0667 91.2603 74.5664 81.1697L74.7021 81.76C74.7717 82.1707 74.8597 82.6033 74.9074 83.0323V83.0543C74.9514 83.2597 74.9734 83.465 74.9991 83.6483V83.7363C75.0211 83.9417 75.0431 84.147 75.0431 84.3303C75.0651 84.5797 75.0871 84.829 75.0871 85.0783V85.445C75.0871 85.555 75.1127 85.6907 75.1127 85.8043C75.1127 85.9437 75.0871 86.0793 75.0871 86.215V86.534C75.0871 86.6917 75.0651 86.8273 75.0651 86.9887C75.0651 87.0803 75.0651 87.172 75.0431 87.282C75.0431 87.4433 75.0211 87.601 75.0211 87.7843C74.9991 87.8503 74.9991 87.92 74.9991 87.986L74.9257 88.5103C74.9257 88.58 74.9257 88.646 74.9074 88.7157C74.8817 88.943 74.8377 89.1483 74.8157 89.3757V89.4197L74.6801 90.0577V90.1237L74.5444 90.736C74.5444 90.7617 74.5187 90.8093 74.5187 90.8277C74.4769 91.0356 74.4243 91.2412 74.3611 91.4437V91.5097C74.2914 91.737 74.2254 91.9423 74.1777 92.1477C74.1557 92.1697 74.1557 92.1917 74.1557 92.1917L73.9504 92.8737C73.8624 93.101 73.7927 93.3063 73.7011 93.5337C73.6094 93.761 73.5434 93.9883 73.4517 94.1937C73.3601 94.421 73.2684 94.6227 73.1804 94.8537H73.1547C73.0667 95.0553 72.9714 95.2827 72.8614 95.488C72.8423 95.5423 72.819 95.595 72.7917 95.6457C72.7697 95.6677 72.7697 95.6933 72.7477 95.7153C71.2447 98.7243 69.057 101.339 66.3604 103.349C66.1771 103.463 65.9974 103.602 65.8141 103.738C65.7701 103.782 65.7041 103.804 65.6564 103.848C65.4939 103.968 65.3276 104.083 65.1577 104.193L65.2237 104.328H65.2494L66.2027 104.193H66.2247C66.8151 104.101 67.4054 103.987 67.9957 103.874C68.1571 103.852 68.3367 103.804 68.4981 103.76L68.8171 103.69C68.9747 103.668 69.1324 103.624 69.2937 103.602C69.4294 103.555 69.5651 103.529 69.7007 103.489C71.9741 102.939 74.1777 102.191 76.2934 101.307C72.6408 106.282 67.783 110.247 62.1767 112.828C64.7947 112.644 67.4054 112.215 69.9281 111.486C79.0588 108.801 86.7707 102.639 91.4037 94.3257C90.468 99.5883 88.3808 104.579 85.2914 108.941C87.494 107.488 89.5292 105.796 91.3597 103.896C96.4467 98.5849 99.7863 91.8443 100.93 84.5797C101.7 88.173 101.927 91.8763 101.59 95.532C117.994 72.6483 102.95 48.9213 96.6544 42.6733C96.6324 42.6257 96.6104 42.6037 96.6104 42.5597C96.5884 42.5817 96.5884 42.5817 96.5884 42.6037C96.5884 42.5817 96.5884 42.5817 96.5627 42.5597C96.5627 42.831 96.5407 43.1023 96.5187 43.3773C96.4557 43.8864 96.3799 44.3938 96.2914 44.899C96.1814 45.3977 96.0421 45.9 95.9064 46.4023C95.7451 46.879 95.5654 47.3777 95.3564 47.8543C95.1487 48.3251 94.9224 48.7875 94.6781 49.2403C94.1707 50.1312 93.5854 50.9754 92.9291 51.763C92.5881 52.17 92.2251 52.533 91.8584 52.8997C91.6441 53.0956 91.424 53.2851 91.1984 53.468L90.6777 53.9227C90.272 54.2429 89.8471 54.538 89.4054 54.8063C88.971 55.0861 88.5232 55.3443 88.0634 55.58C87.5867 55.8073 87.1101 56.0127 86.6334 56.218C85.6625 56.5873 84.658 56.8611 83.6341 57.0357C83.1097 57.1273 82.5891 57.1713 82.0867 57.219C81.7243 57.2446 81.3611 57.2593 80.9977 57.263C80.4808 57.2559 79.9645 57.2253 79.4504 57.1713C78.9313 57.1306 78.4156 57.0546 77.9067 56.944C77.3913 56.8505 76.8829 56.7218 76.3851 56.559H76.3594C76.8617 56.5113 77.3604 56.4673 77.8627 56.3757C78.8861 56.1983 79.8903 55.9245 80.8621 55.558C81.3607 55.3747 81.8374 55.1473 82.2921 54.92C82.7687 54.6927 83.2014 54.4433 83.6561 54.172C84.0887 53.8787 84.5177 53.5817 84.9284 53.2627C85.3391 52.9437 85.7241 52.6027 86.0871 52.2397C86.4721 51.8987 86.8131 51.5137 87.1541 51.125C87.4951 50.718 87.8141 50.3073 88.1074 49.9003C88.1551 49.8307 88.2027 49.739 88.2467 49.673C88.4741 49.3063 88.7014 48.9433 88.9067 48.5803C89.4078 47.6759 89.818 46.724 90.1314 45.7387C90.2927 45.262 90.4064 44.7633 90.5201 44.261C90.6117 43.7403 90.7034 43.2417 90.7474 42.7393C90.7914 42.2187 90.8391 41.6943 90.8391 41.1957C90.8391 40.829 90.8134 40.466 90.7914 40.103C90.7461 39.594 90.6849 39.0865 90.6081 38.5813C90.5197 38.0691 90.4071 37.5613 90.2707 37.0597C90.1094 36.583 89.9517 36.0807 89.7684 35.604C89.5851 35.1273 89.3614 34.6507 89.1341 34.196C88.8811 33.7413 88.6317 33.2867 88.3604 32.854C88.0702 32.4292 87.7669 32.0135 87.4511 31.6073C87.1101 31.2187 86.7691 30.83 86.4061 30.445C86.2148 30.2499 86.0179 30.0604 85.8157 29.8767C84.7891 29.081 83.7257 28.333 82.6551 27.651C82.5082 27.5662 82.3564 27.4903 82.2004 27.4237C81.5263 27.0109 80.8 26.6866 80.0407 26.4667Z" fill="white"/>
</g>
<defs>
<filter id="filter0_d_8_36" x="0" y="0" width="130" height="130" filterUnits="userSpaceOnUse" color-interpolation-filters="sRGB">
<feFlood flood-opacity="0" result="BackgroundImageFix"/>
<feColorMatrix in="SourceAlpha" type="matrix" values="0 0 0 0 0 0 0 0 0 0 0 0 0 0 0 0 0 0 127 0" result="hardAlpha"/>
<feOffset dy="4"/>
<feGaussianBlur stdDeviation="2"/>
<feComposite in2="hardAlpha" operator="out"/>
<feColorMatrix type="matrix" values="0 0 0 0 0 0 0 0 0 0 0 0 0 0 0 0 0 0 0.25 0"/>
<feBlend mode="normal" in2="BackgroundImageFix" result="effect1_dropShadow_8_36"/>
<feBlend mode="normal" in="SourceGraphic" in2="effect1_dropShadow_8_36" result="shape"/>
</filter>
<linearGradient id="paint0_linear_8_36" x1="14.5" y1="6" x2="115.5" y2="118.5" gradientUnits="userSpaceOnUse">
<stop stop-color="#E0234E"/>
<stop offset="1" stop-color="#621426"/>
</linearGradient>
<clipPath id="clip0_8_36">
<rect width="88" height="88" fill="white" transform="translate(21 25)"/>
</clipPath>
</defs>
</svg>
