<svg width="130" height="130" viewBox="0 0 130 130" fill="none" xmlns="http://www.w3.org/2000/svg">
<g filter="url(#filter0_d_8_77)">
<rect x="4" width="122" height="122" rx="20" fill="url(#paint0_linear_8_77)"/>
</g>
<g clip-path="url(#clip0_8_77)">
<path d="M89.4383 97.586C82.446 102.268 74.0383 105 65 105C40.7157 105 21 85.2843 21 61C21 36.7157 40.7157 17 65 17C89.2843 17 109 36.7157 109 61C109 74.1377 103.229 85.937 94.0877 94.0037L54.803 43.4H47.4V78.5853H53.3217V50.9203L89.4383 97.586ZM77.221 66.2983L83.0877 73.8553V43.4H77.221V66.2983Z" fill="white"/>
</g>
<defs>
<filter id="filter0_d_8_77" x="0" y="0" width="130" height="130" filterUnits="userSpaceOnUse" color-interpolation-filters="sRGB">
<feFlood flood-opacity="0" result="BackgroundImageFix"/>
<feColorMatrix in="SourceAlpha" type="matrix" values="0 0 0 0 0 0 0 0 0 0 0 0 0 0 0 0 0 0 127 0" result="hardAlpha"/>
<feOffset dy="4"/>
<feGaussianBlur stdDeviation="2"/>
<feComposite in2="hardAlpha" operator="out"/>
<feColorMatrix type="matrix" values="0 0 0 0 0 0 0 0 0 0 0 0 0 0 0 0 0 0 0.25 0"/>
<feBlend mode="normal" in2="BackgroundImageFix" result="effect1_dropShadow_8_77"/>
<feBlend mode="normal" in="SourceGraphic" in2="effect1_dropShadow_8_77" result="shape"/>
</filter>
<linearGradient id="paint0_linear_8_77" x1="14.5" y1="6" x2="115.5" y2="118.5" gradientUnits="userSpaceOnUse">
<stop/>
<stop offset="1" stop-color="#717171"/>
</linearGradient>
<clipPath id="clip0_8_77">
<rect width="88" height="88" fill="white" transform="translate(21 17)"/>
</clipPath>
</defs>
</svg>
