<svg width="130" height="130" viewBox="0 0 130 130" fill="none" xmlns="http://www.w3.org/2000/svg">
<g filter="url(#filter0_d_8_13)">
<rect x="4" width="122" height="122" rx="20" fill="url(#paint0_linear_8_13)"/>
</g>
<g clip-path="url(#clip0_8_13)">
<path d="M64.9927 105C63.8157 105 62.6423 104.692 61.612 104.094L50.8467 97.7253C49.2407 96.827 50.0253 96.508 50.5533 96.321C52.6983 95.5767 53.131 95.4043 55.4227 94.1063C55.661 93.9707 55.9763 94.022 56.222 94.1687L64.494 99.0783C64.7947 99.2433 65.2163 99.2433 65.4913 99.0783L97.7397 80.4663C98.0403 80.294 98.231 79.9493 98.231 79.5937V42.377C98.231 42.014 98.0367 41.673 97.7287 41.4897L65.495 22.8923C65.198 22.72 64.802 22.72 64.5013 22.8923L32.275 41.4933C31.9633 41.673 31.7653 42.025 31.7653 42.377V79.5937C31.7653 79.9493 31.9633 80.2867 32.275 80.4553L41.108 85.5593C45.9003 87.9573 48.8373 85.134 48.8373 82.296V45.5523C48.8373 45.0317 49.2553 44.6247 49.776 44.6247H53.8643C54.374 44.6247 54.7993 45.0353 54.7993 45.5523V82.296C54.7993 88.6943 51.316 92.361 45.2513 92.361C43.3887 92.361 41.9183 92.361 37.8227 90.3407L29.36 85.475C27.27 84.2687 25.9793 82.01 25.9793 79.5937V42.377C25.9793 39.9607 27.2737 37.702 29.36 36.4993L61.6083 17.8653C63.6507 16.7103 66.3603 16.7103 68.3843 17.8653L100.629 36.4993C102.719 37.7057 104.017 39.9607 104.017 42.377V79.5937C104.017 82.01 102.719 84.2613 100.629 85.475L68.3843 104.094C67.3577 104.692 66.188 105 64.9927 105ZM91.0297 68.3077C91.0297 61.341 86.3217 59.4857 76.4107 58.1767C66.397 56.853 65.3777 56.1673 65.3777 53.8243C65.3777 51.8883 66.2393 49.3033 73.657 49.3033C80.2827 49.3033 82.7247 50.7297 83.7293 55.1957C83.8173 55.6173 84.2023 55.9253 84.635 55.9253H88.8187C89.079 55.9253 89.3247 55.8117 89.5007 55.6283C89.6767 55.4303 89.772 55.1773 89.7463 54.9097C89.0973 47.217 83.986 43.631 73.657 43.631C64.461 43.631 58.9757 47.5103 58.9757 54.0187C58.9757 61.077 64.4317 63.0277 73.2573 63.9003C83.8173 64.9343 84.635 66.478 84.635 68.5533C84.635 72.1577 81.742 73.694 74.9477 73.694C66.4153 73.694 64.538 71.5527 63.9073 67.3067C63.834 66.852 63.4453 66.5183 62.9797 66.5183H58.8107C58.2937 66.5183 57.8793 66.929 57.8793 67.446C57.8793 72.88 60.8347 79.3553 74.9477 79.3553C85.1703 79.359 91.0297 75.3367 91.0297 68.3077Z" fill="white"/>
</g>
<defs>
<filter id="filter0_d_8_13" x="0" y="0" width="130" height="130" filterUnits="userSpaceOnUse" color-interpolation-filters="sRGB">
<feFlood flood-opacity="0" result="BackgroundImageFix"/>
<feColorMatrix in="SourceAlpha" type="matrix" values="0 0 0 0 0 0 0 0 0 0 0 0 0 0 0 0 0 0 127 0" result="hardAlpha"/>
<feOffset dy="4"/>
<feGaussianBlur stdDeviation="2"/>
<feComposite in2="hardAlpha" operator="out"/>
<feColorMatrix type="matrix" values="0 0 0 0 0 0 0 0 0 0 0 0 0 0 0 0 0 0 0.25 0"/>
<feBlend mode="normal" in2="BackgroundImageFix" result="effect1_dropShadow_8_13"/>
<feBlend mode="normal" in="SourceGraphic" in2="effect1_dropShadow_8_13" result="shape"/>
</filter>
<linearGradient id="paint0_linear_8_13" x1="14.5" y1="6" x2="115.5" y2="118.5" gradientUnits="userSpaceOnUse">
<stop stop-color="#5FA04E"/>
<stop offset="1" stop-color="#196306"/>
</linearGradient>
<clipPath id="clip0_8_13">
<rect width="88" height="88" fill="white" transform="translate(21 17)"/>
</clipPath>
</defs>
</svg>
