<svg width="130" height="130" viewBox="0 0 130 130" fill="none" xmlns="http://www.w3.org/2000/svg">
<g filter="url(#filter0_d_8_62)">
<rect x="4" width="122" height="122" rx="20" fill="url(#paint0_linear_8_62)"/>
</g>
<g clip-path="url(#clip0_8_62)">
<path d="M80.9903 54.62C80.5473 54.7473 80.1361 54.9665 79.7835 55.2635C79.431 55.5604 79.145 55.9284 78.9443 56.3433L78.6803 56.886L78.684 57.645C78.684 58.3527 78.6987 58.4407 78.9003 58.9393C79.179 59.647 79.4577 60.0833 79.9673 60.582C80.8473 61.4547 81.8373 61.682 83.1647 61.3337C83.5723 61.2091 83.9504 61.0033 84.2762 60.7285C84.6021 60.4537 84.8688 60.1158 85.0603 59.735C85.3654 59.1783 85.469 58.5333 85.3537 57.909C85.119 56.248 84.1437 55.0417 82.699 54.62C82.1365 54.4933 81.5528 54.4933 80.9903 54.62ZM47.246 54.6383C46.1277 54.9903 45.2917 55.8117 44.8627 56.9813C44.6484 57.5926 44.5732 58.244 44.6427 58.888C44.8517 60.021 45.7793 61.0513 46.8353 61.3337C48.1627 61.682 49.1527 61.4547 50.0327 60.582C50.546 60.0833 50.821 59.647 51.0997 58.9393C51.3013 58.4407 51.316 58.3527 51.316 57.645L51.3197 56.886L51.0557 56.3433C50.853 55.9243 50.5635 55.5533 50.2062 55.2549C49.849 54.9565 49.4324 54.7375 48.984 54.6127C48.4107 54.4846 47.8153 54.4934 47.246 54.6383ZM62.5873 61.9717C62.107 62.232 61.7697 62.8883 61.8723 63.376C61.986 63.9003 62.448 64.432 63.1667 64.8683C63.5517 65.0993 63.5773 65.1323 63.5957 65.367C63.6103 65.5063 63.559 65.9023 63.4893 66.258C63.416 66.6027 63.3573 66.9693 63.3573 67.072C63.3647 67.3433 63.614 67.787 63.8817 67.9997C64.1163 68.1903 64.1603 68.1977 64.8167 68.216C65.418 68.2343 65.5427 68.2197 65.7847 68.106C66.4043 67.8053 66.562 67.248 66.3347 66.181C66.144 65.29 66.1807 65.1543 66.6537 64.8793C67.156 64.586 67.684 64.0763 67.8417 63.728C67.9863 63.409 68.0001 63.0461 67.8801 62.717C67.7601 62.388 67.516 62.1191 67.2 61.968C66.9914 61.8759 66.764 61.8344 66.5363 61.847C66.0743 61.847 65.7773 61.957 65.2347 62.3017L64.923 62.496L64.7287 62.3787C63.9257 61.902 63.779 61.847 63.295 61.8543C63.053 61.8337 62.8097 61.874 62.5873 61.9717ZM64.0173 53.9233C62.6497 54.0553 62.2757 54.1067 61.6193 54.2387C60.5523 54.4587 59.126 54.9537 58.1323 55.4413C54.6857 57.128 52.306 59.9367 51.58 63.1927C51.4333 63.838 51.415 64.0507 51.415 65.136C51.415 66.214 51.4333 66.445 51.5727 67.0573C52.5407 71.3107 56.4567 74.453 61.524 75.025C62.624 75.146 67.376 75.146 68.476 75.025C72.546 74.5667 76.044 72.3593 77.617 69.2647C78.035 68.436 78.2367 67.9007 78.4237 67.0573C78.5667 66.445 78.585 66.214 78.585 65.1397C78.585 64.0507 78.5667 63.838 78.42 63.1927C77.364 58.4627 72.777 54.7447 67.156 54.037C66.1144 53.9341 65.0637 53.8961 64.0173 53.9233ZM66.3823 57.359C68.2661 57.5629 70.0752 58.2087 71.6623 59.2437C72.48 59.7863 73.6313 60.923 74.1227 61.671C74.7313 62.5913 75.076 63.5337 75.2337 64.6777C75.307 65.202 75.2703 65.598 75.076 66.445C74.7827 67.71 73.8587 69.03 72.612 69.954C71.826 70.4824 70.9774 70.9111 70.0857 71.23C68.685 71.6773 67.7683 71.758 64.494 71.736C62.36 71.714 61.9787 71.6993 61.3663 71.582C59.2763 71.1897 57.619 70.3573 56.4163 69.0887C55.4483 68.062 55.0047 67.127 54.7663 65.62C54.6563 64.916 54.858 63.7537 55.2687 62.7747C55.7673 61.5793 57.058 60.098 58.334 59.2437C59.8117 58.2573 61.7587 57.557 63.548 57.3663C64.2337 57.293 65.6967 57.293 66.3823 57.359ZM46.2047 17.0257C45.2976 17.1945 44.4411 17.5683 43.7003 18.1183C41.5957 19.7133 39.9677 23.1087 39.2783 27.3363C39.0217 28.935 38.842 31.1497 38.842 32.8473C38.842 34.842 39.0767 37.394 39.4103 39.1577C39.4837 39.55 39.524 39.8983 39.4947 39.9203C39.2689 40.1095 39.0403 40.2953 38.809 40.4777C37.4903 41.5665 36.3204 42.824 35.3293 44.2177C33.5308 46.7704 32.3508 49.7066 31.8827 52.794C31.6843 54.4453 31.656 56.1126 31.7983 57.7697C32.132 60.6297 32.99 63.0423 34.464 65.2497L34.9407 65.9647L34.805 66.1993C33.8187 67.8567 32.979 70.251 32.5867 72.55C32.2787 74.3687 32.2383 74.8563 32.2383 77.2947C32.2383 79.7513 32.2713 80.239 32.561 81.9367C32.9093 83.9717 33.617 86.1277 34.4053 87.5613C34.6657 88.0307 35.2963 89.0023 35.3733 89.0537C35.399 89.0647 35.322 89.2993 35.2047 89.5707C34.2348 91.7612 33.5592 94.0705 33.1953 96.4384C32.968 97.9674 32.935 98.4623 32.935 100.072C32.935 102.125 33.0487 103.123 33.4777 104.762L33.54 105H38.9593L38.776 104.666C37.687 102.642 37.5843 98.8913 38.5267 95.144C38.9557 93.4133 39.4433 92.141 40.3527 90.392L40.8953 89.3287V88.6797C40.8953 88.0747 40.8843 88.005 40.6863 87.6054C40.5043 87.2608 40.2635 86.9506 39.975 86.6887C39.3807 86.122 38.9014 85.446 38.5633 84.6977C37.0087 81.3243 36.708 76.3157 37.8007 72.044C38.2553 70.262 39.007 68.678 39.7953 67.8127C40.3041 67.2903 40.5962 66.5947 40.613 65.8657C40.613 65.1507 40.3563 64.564 39.7917 63.9517C38.1574 62.2019 37.1102 59.9856 36.796 57.612C36.2827 54.092 37.214 50.2603 39.326 47.2207C41.3903 44.236 44.287 42.322 47.5283 41.8123C48.258 41.6913 49.6183 41.7097 50.3737 41.849C51.2023 41.9957 51.7193 41.9517 52.251 41.6987C52.9073 41.387 53.2337 41.002 53.6223 40.1183C53.9633 39.33 54.2273 38.8973 54.9423 38.0063C55.8003 36.943 56.629 36.2133 57.9563 35.3333C59.4707 34.3433 61.1977 33.621 62.9137 33.2763C63.537 33.148 63.8303 33.1297 65 33.1297C66.1697 33.1297 66.4593 33.148 67.0863 33.2763C69.712 33.8412 72.1366 35.1041 74.1043 36.932C74.5333 37.3317 75.5637 38.6077 75.8937 39.1393C76.0183 39.3483 76.242 39.7883 76.3777 40.1183C76.7627 41.002 77.0927 41.387 77.749 41.695C78.2623 41.9443 78.7977 41.9957 79.5933 41.86C80.851 41.6473 81.819 41.6657 83.051 41.9187C87.2457 42.762 90.8977 46.2197 92.5147 50.8543C93.9263 54.917 93.5267 59.1667 91.4293 62.4153C91.0737 62.9653 90.7217 63.4053 90.2083 63.9517C89.1047 65.1323 89.1047 66.599 90.2047 67.8127C92.0123 69.789 93.1417 74.6547 92.8007 78.9447C92.5733 81.7753 91.8473 84.309 90.8463 85.7427C90.5988 86.0798 90.3241 86.3962 90.025 86.6887C89.7365 86.9507 89.4958 87.2608 89.3137 87.6054C89.1157 88.005 89.1047 88.0747 89.1047 88.6797V89.3323L89.6473 90.3957C90.5567 92.141 91.0407 93.4133 91.4733 95.144C92.401 98.84 92.3203 102.514 91.257 104.608C91.1956 104.724 91.1418 104.844 91.0957 104.967C91.0957 104.989 92.302 105 93.7797 105H96.4563L96.5297 104.729L96.6617 104.237C96.7313 103.959 96.8707 103.137 96.9843 102.345C97.0907 101.55 97.0907 98.62 96.9843 97.7327C96.581 94.5243 95.9027 91.976 94.7953 89.5707C94.678 89.2993 94.601 89.0647 94.6267 89.0537C94.656 89.0353 94.8357 88.7824 95.0227 88.4964C96.4013 86.41 97.2483 83.7883 97.6773 80.327C97.791 79.3737 97.791 75.2743 97.6773 74.3577C97.373 71.9927 97.01 70.3903 96.4013 68.766C96.0541 67.8857 95.6511 67.0284 95.195 66.1993L95.0557 65.9647L95.536 65.2533C97.01 63.0387 97.868 60.626 98.2017 57.7733C98.343 56.1149 98.3135 54.4464 98.1137 52.794C97.6438 49.7077 96.4653 46.7722 94.6707 44.2177C93.6784 42.8238 92.5073 41.5663 91.1873 40.4777C90.9573 40.2953 90.7299 40.1095 90.5053 39.9203C90.4946 39.6633 90.5231 39.4062 90.5897 39.1577C91.3523 35.172 91.3267 30.2 90.5273 26.3133C89.8307 22.9253 88.5657 20.234 86.934 18.6793C85.636 17.44 84.3087 16.912 82.7173 17.011C79.0653 17.2273 76.1173 21.4293 74.9587 28.0477C74.7924 28.928 74.6737 29.8166 74.603 30.7097C74.603 30.8417 74.5773 30.9517 74.548 30.9517C74.3579 30.8725 74.1751 30.7768 74.0017 30.6657C71.2826 29.0266 68.1747 28.1443 65 28.11C61.9493 28.11 58.8143 29.001 55.9947 30.6693C55.8225 30.7803 55.6409 30.876 55.452 30.9553C55.4227 30.9553 55.397 30.8453 55.397 30.7133C55.3269 29.8214 55.2081 28.934 55.0413 28.055C53.989 22.104 51.569 18.1697 48.3533 17.176C47.6489 17.0256 46.9232 16.975 46.2047 17.0257ZM47.279 22.1663C48.1883 22.8887 49.1967 24.9493 49.7797 27.2557C49.8897 27.67 49.9997 28.1503 50.0327 28.3263C50.0583 28.4987 50.128 28.8837 50.183 29.1807C50.4287 30.519 50.5423 31.9673 50.557 33.7273L50.5643 35.469L50.1243 36.1107L49.6917 36.7633H48.6723C47.4843 36.7633 46.3037 36.9137 45.1743 37.218L44.3017 37.438C44.1807 37.4637 44.1623 37.427 44.0927 36.91C43.7194 34.0817 43.7392 31.2153 44.1513 28.3923C44.606 25.503 45.6657 22.8887 46.7033 22.1187C46.949 21.9353 46.993 21.939 47.279 22.1663ZM83.304 22.1223C83.9273 22.5843 84.6167 23.809 85.13 25.3783C86.1567 28.5097 86.45 32.8143 85.9073 36.91C85.8377 37.4233 85.8193 37.4637 85.6983 37.438L84.8257 37.218C83.6845 36.9146 82.5085 36.7617 81.3277 36.7633H80.3083L79.872 36.1107L79.4357 35.469L79.443 33.731C79.4577 31.278 79.685 29.3677 80.2277 27.2337C80.8033 24.9493 81.819 22.8887 82.721 22.1663C83.007 21.939 83.051 21.9353 83.304 22.1223Z" fill="white"/>
</g>
<defs>
<filter id="filter0_d_8_62" x="0" y="0" width="130" height="130" filterUnits="userSpaceOnUse" color-interpolation-filters="sRGB">
<feFlood flood-opacity="0" result="BackgroundImageFix"/>
<feColorMatrix in="SourceAlpha" type="matrix" values="0 0 0 0 0 0 0 0 0 0 0 0 0 0 0 0 0 0 127 0" result="hardAlpha"/>
<feOffset dy="4"/>
<feGaussianBlur stdDeviation="2"/>
<feComposite in2="hardAlpha" operator="out"/>
<feColorMatrix type="matrix" values="0 0 0 0 0 0 0 0 0 0 0 0 0 0 0 0 0 0 0.25 0"/>
<feBlend mode="normal" in2="BackgroundImageFix" result="effect1_dropShadow_8_62"/>
<feBlend mode="normal" in="SourceGraphic" in2="effect1_dropShadow_8_62" result="shape"/>
</filter>
<linearGradient id="paint0_linear_8_62" x1="14.5" y1="6" x2="115.5" y2="118.5" gradientUnits="userSpaceOnUse">
<stop/>
<stop offset="1" stop-color="#717171"/>
</linearGradient>
<clipPath id="clip0_8_62">
<rect width="88" height="88" fill="white" transform="translate(21 17)"/>
</clipPath>
</defs>
</svg>
