<svg width="130" height="130" viewBox="0 0 130 130" fill="none" xmlns="http://www.w3.org/2000/svg">
<g filter="url(#filter0_d_8_55)">
<rect x="4" width="122" height="122" rx="20" fill="url(#paint0_linear_8_55)"/>
</g>
<g clip-path="url(#clip0_8_55)">
<path d="M102.7 53.0106C103.684 50.0475 104.025 46.9085 103.698 43.8034C103.372 40.6982 102.387 37.6984 100.809 35.0043C98.4699 30.9322 94.8978 27.7082 90.6079 25.7972C86.3181 23.8861 81.5321 23.3867 76.9401 24.371C74.3313 21.4691 71.0048 19.3047 67.2948 18.0952C63.5848 16.8857 59.6218 16.6737 55.8039 17.4805C51.986 18.2873 48.4477 20.0845 45.5442 22.6916C42.6407 25.2987 40.4743 28.6239 39.2626 32.3332C36.2033 32.9605 33.3133 34.2336 30.7854 36.0673C28.2576 37.901 26.1503 40.2531 24.6043 42.9665C22.2395 47.0318 21.2287 51.7439 21.7183 56.4215C22.2078 61.0991 24.1722 65.4998 27.3276 68.9874C26.34 71.9491 25.9963 75.0875 26.3194 78.1927C26.6425 81.2979 27.6251 84.2984 29.2012 86.9933C31.5436 91.0669 35.1189 94.2916 39.4118 96.2027C43.7047 98.1137 48.4935 98.6125 53.0881 97.627C55.1607 99.961 57.7075 101.826 60.5582 103.097C63.409 104.369 66.4982 105.017 69.6196 105C74.3263 105.004 78.9126 103.513 82.7165 100.741C86.5204 97.9692 89.3451 94.0603 90.7829 89.5786C93.8418 88.9502 96.7314 87.6767 99.2591 85.843C101.787 84.0093 103.894 81.6577 105.441 78.9449C107.778 74.8856 108.771 70.1912 108.279 65.5332C107.787 60.8752 105.834 56.4918 102.7 53.0106ZM69.6196 99.2403C65.7649 99.2464 62.0311 97.8954 59.0728 95.424L59.5931 95.1292L77.1136 85.0158C77.5496 84.7601 77.9117 84.3953 78.1641 83.9573C78.4166 83.5194 78.5507 83.0233 78.5535 82.5177V57.8158L85.9601 62.1006C85.9967 62.1192 86.0285 62.1461 86.0527 62.1793C86.0769 62.2124 86.0929 62.2508 86.0995 62.2913V82.7608C86.0902 87.1287 84.3509 91.3149 81.2623 94.4034C78.1738 97.4919 73.9875 99.2311 69.6196 99.2403ZM34.1971 84.1138C32.2639 80.7758 31.5698 76.8629 32.2369 73.0636L32.7575 73.376L50.2952 83.4894C50.7291 83.744 51.2232 83.8783 51.7263 83.8783C52.2294 83.8783 52.7235 83.744 53.1574 83.4894L74.581 71.1382V79.6904C74.579 79.7347 74.567 79.778 74.5459 79.817C74.5248 79.8561 74.4952 79.8899 74.4593 79.9159L56.7133 90.1506C52.9261 92.3323 48.4279 92.922 44.2064 91.7902C39.9848 90.6583 36.3849 87.8975 34.1971 84.1138ZM29.5829 45.9504C31.5295 42.5909 34.602 40.0285 38.2564 38.7168V59.5332C38.2498 60.0361 38.3783 60.5316 38.6285 60.9679C38.8787 61.4042 39.2414 61.7654 39.6787 62.0137L60.9982 74.3128L53.5912 78.5973C53.5511 78.6186 53.5064 78.6298 53.461 78.6298C53.4156 78.6298 53.3709 78.6186 53.3308 78.5973L35.6197 68.3802C31.8396 66.189 29.0819 62.5892 27.9504 58.369C26.8189 54.1488 27.406 49.6522 29.5829 45.8639V45.9504ZM90.436 60.0884L69.0473 47.6679L76.4371 43.3999C76.4772 43.3786 76.5219 43.3675 76.5672 43.3675C76.6126 43.3675 76.6573 43.3786 76.6974 43.3999L94.4085 53.6347C97.1165 55.1972 99.3242 57.4979 100.774 60.2681C102.223 63.0382 102.855 66.1636 102.595 69.2793C102.335 72.3949 101.194 75.3723 99.3049 77.8638C97.4161 80.3553 94.8576 82.2581 91.928 83.3501V62.5337C91.9126 62.0316 91.767 61.5422 91.5054 61.1134C91.2437 60.6847 90.8755 60.3317 90.436 60.0884ZM97.8086 49.0037L97.2879 48.6913L79.7851 38.4913C79.3485 38.2351 78.8514 38.1001 78.3452 38.1001C77.839 38.1001 77.3419 38.2351 76.9053 38.4913L55.4997 50.8421V42.2904C55.4951 42.2469 55.5024 42.203 55.5207 42.1633C55.539 42.1236 55.5677 42.0896 55.6038 42.0649L73.3149 31.8473C76.0294 30.2836 79.133 29.525 82.2628 29.6604C85.3925 29.7958 88.4191 30.8195 90.9884 32.6118C93.5577 34.4041 95.5636 36.8909 96.7714 39.7814C97.9793 42.6719 98.3392 45.8465 97.809 48.934L97.8086 49.0037ZM51.4572 64.1642L44.0505 59.897C44.0134 59.8747 43.9818 59.8445 43.9577 59.8085C43.9336 59.7726 43.9177 59.7318 43.9112 59.6891V39.272C43.9152 36.1398 44.8109 33.0735 46.4934 30.4316C48.1759 27.7897 50.5758 25.6814 53.4124 24.3532C56.249 23.0249 59.4051 22.5317 62.5117 22.931C65.6183 23.3304 68.547 24.6059 70.9554 26.6084L70.4347 26.9036L52.9147 37.0162C52.4786 37.272 52.1166 37.6368 51.8641 38.0747C51.6117 38.5127 51.4775 39.0088 51.4748 39.5143L51.4572 64.1642ZM55.4817 55.4911L65.0224 49.9918L74.581 55.4911V66.4889L65.0572 71.9878L55.4993 66.4889L55.4817 55.4911Z" fill="white"/>
</g>
<defs>
<filter id="filter0_d_8_55" x="0" y="0" width="130" height="130" filterUnits="userSpaceOnUse" color-interpolation-filters="sRGB">
<feFlood flood-opacity="0" result="BackgroundImageFix"/>
<feColorMatrix in="SourceAlpha" type="matrix" values="0 0 0 0 0 0 0 0 0 0 0 0 0 0 0 0 0 0 127 0" result="hardAlpha"/>
<feOffset dy="4"/>
<feGaussianBlur stdDeviation="2"/>
<feComposite in2="hardAlpha" operator="out"/>
<feColorMatrix type="matrix" values="0 0 0 0 0 0 0 0 0 0 0 0 0 0 0 0 0 0 0.25 0"/>
<feBlend mode="normal" in2="BackgroundImageFix" result="effect1_dropShadow_8_55"/>
<feBlend mode="normal" in="SourceGraphic" in2="effect1_dropShadow_8_55" result="shape"/>
</filter>
<linearGradient id="paint0_linear_8_55" x1="14.5" y1="6" x2="115.5" y2="118.5" gradientUnits="userSpaceOnUse">
<stop stop-color="#412991"/>
<stop offset="1" stop-color="#211252"/>
</linearGradient>
<clipPath id="clip0_8_55">
<rect width="88" height="88" fill="white" transform="translate(21 17)"/>
</clipPath>
</defs>
</svg>
