<svg width="130" height="130" viewBox="0 0 130 130" fill="none" xmlns="http://www.w3.org/2000/svg">
<g filter="url(#filter0_d_8_44)">
<rect x="4" width="122" height="122" rx="20" fill="url(#paint0_linear_8_44)"/>
</g>
<g clip-path="url(#clip0_8_44)">
<path d="M73.25 17.66L76.55 18.3933L79.2267 19.3467L81.39 20.4467L83.04 21.62L84.2867 22.8667L85.2034 24.1133L85.79 25.3233L86.1567 26.4233L86.3034 27.3767L86.3767 28.11L86.34 28.5867V48.1667L86.1567 50.4767L85.68 52.4933L84.91 54.18L83.9567 55.5733L82.8567 56.71L81.6467 57.6267L80.3634 58.3233L79.08 58.8367L77.87 59.2033L76.77 59.46L75.8167 59.6067L75.0467 59.68H53.1567L50.6267 59.8633L48.4634 60.3767L46.63 61.1833L45.1267 62.1733L43.9167 63.3467L42.9267 64.63L42.1934 65.95L41.6434 67.3067L41.2767 68.59L41.02 69.7633L40.8734 70.7533L40.8 71.5233V82.7433H32.6234L31.8534 82.6333L30.8267 82.3767L29.6534 81.9367L28.37 81.2767L27.05 80.3233L25.73 79.0033L24.4467 77.3167L23.2734 75.1533L22.2467 72.4767L21.4767 69.25L20.9634 65.4L20.78 60.89L21 56.4167L21.5867 52.6033L22.4667 49.4133L23.64 46.81L24.96 44.72L26.4267 43.1067L27.9667 41.8967L29.5067 41.0167L30.9734 40.43L32.2934 40.0633L33.4667 39.88L34.3467 39.8433H34.9334L35.1534 39.88H65.0734V36.8367H43.66L43.6234 26.7533L43.55 25.3967L43.7334 24.15L44.1367 23.0133L44.76 21.9867L45.6767 21.0333L46.8134 20.19L48.2067 19.4567L49.82 18.7967L51.69 18.2467L53.8167 17.8067L56.1634 17.44L58.7667 17.22L61.59 17.0733L64.67 17L69.3267 17.1833L73.25 17.66ZM50.15 24.92L49.3067 26.13L49.0134 27.6333L49.3067 29.1367L50.15 30.3833L51.36 31.19L52.8634 31.52L54.3667 31.19L55.5767 30.3833L56.42 29.1367L56.7134 27.6333L56.42 26.13L55.5767 24.92L54.3667 24.1133L52.8634 23.7833L51.36 24.1133L50.15 24.92ZM98.1467 39.4033L99.1734 39.6233L100.347 40.0633L101.63 40.7233L102.95 41.7133L104.27 42.9967L105.553 44.72L106.727 46.8833L107.753 49.56L108.523 52.7867L109.037 56.6L109.22 61.11L109 65.62L108.413 69.4333L107.533 72.5867L106.36 75.19L105.04 77.28L103.573 78.93L102.033 80.14L100.493 81.02L99.0267 81.6067L97.7067 81.9367L96.5334 82.12L95.6534 82.1933L95.0667 82.1567H64.9267V85.1633H86.34L86.3767 95.2833L86.45 96.6033L86.2667 97.85L85.8634 98.9867L85.24 100.05L84.3234 100.967L83.1867 101.847L81.7934 102.58L80.18 103.203L78.31 103.753L76.1834 104.23L73.8367 104.56L71.2334 104.817L68.41 104.963L65.33 105L60.6734 104.853L56.75 104.34L53.45 103.607L50.7734 102.69L48.61 101.59L46.96 100.38L45.7134 99.1333L44.7967 97.8867L44.21 96.6767L43.8434 95.5767L43.6967 94.66L43.6234 93.9267L43.66 93.45V73.87L43.8434 71.5233L44.32 69.5433L45.09 67.8567L46.0434 66.4633L47.1434 65.29L48.3534 64.41L49.6367 63.6767L50.92 63.1633L52.13 62.7967L53.23 62.5767L54.1834 62.43L54.9534 62.3567L55.43 62.32H76.8434L79.3734 62.1367L81.5367 61.6233L83.37 60.8533L84.8734 59.8267L86.0834 58.6533L87.0734 57.37L87.8067 56.05L88.3567 54.73L88.7234 53.4467L88.98 52.2733L89.1267 51.2467L89.2 50.4767V39.2567H96.8634L97.3767 39.2933L98.1467 39.4033ZM74.4234 91.6533L73.58 92.8633L73.2867 94.3667L73.58 95.87L74.4234 97.08L75.6334 97.9233L77.1367 98.2167L78.64 97.9233L79.85 97.08L80.6934 95.87L80.9867 94.3667L80.6934 92.8633L79.85 91.6533L78.64 90.81L77.1367 90.5167L75.6334 90.81L74.4234 91.6533Z" fill="white"/>
</g>
<defs>
<filter id="filter0_d_8_44" x="0" y="0" width="130" height="130" filterUnits="userSpaceOnUse" color-interpolation-filters="sRGB">
<feFlood flood-opacity="0" result="BackgroundImageFix"/>
<feColorMatrix in="SourceAlpha" type="matrix" values="0 0 0 0 0 0 0 0 0 0 0 0 0 0 0 0 0 0 127 0" result="hardAlpha"/>
<feOffset dy="4"/>
<feGaussianBlur stdDeviation="2"/>
<feComposite in2="hardAlpha" operator="out"/>
<feColorMatrix type="matrix" values="0 0 0 0 0 0 0 0 0 0 0 0 0 0 0 0 0 0 0.25 0"/>
<feBlend mode="normal" in2="BackgroundImageFix" result="effect1_dropShadow_8_44"/>
<feBlend mode="normal" in="SourceGraphic" in2="effect1_dropShadow_8_44" result="shape"/>
</filter>
<linearGradient id="paint0_linear_8_44" x1="14.5" y1="6" x2="115.5" y2="118.5" gradientUnits="userSpaceOnUse">
<stop stop-color="#3776AB"/>
<stop offset="1" stop-color="#133450"/>
</linearGradient>
<clipPath id="clip0_8_44">
<rect width="88" height="88" fill="white" transform="translate(21 17)"/>
</clipPath>
</defs>
</svg>
