<svg width="130" height="130" viewBox="0 0 130 130" fill="none" xmlns="http://www.w3.org/2000/svg">
<g filter="url(#filter0_d_8_85)">
<rect x="4" width="122" height="122" rx="20" fill="url(#paint0_linear_8_85)"/>
</g>
<path d="M72.6192 62.5088C72.6192 64.5889 71.8147 66.584 70.3828 68.0552C68.9508 69.5265 67.0085 70.3535 64.9829 70.3544C62.9568 70.3544 61.0136 69.5278 59.5809 68.0565C58.1481 66.5851 57.3433 64.5896 57.3433 62.5088C57.3432 60.4286 58.1477 58.4336 59.5797 56.9623C61.0116 55.4911 62.9539 54.6641 64.9795 54.6632C67.0057 54.6632 68.9488 55.4897 70.3816 56.9611C71.8143 58.4324 72.6192 60.428 72.6192 62.5088ZM81.6665 25C77.0677 25 71.0509 28.3684 64.9658 34.2C58.8842 28.4 52.864 25.0702 48.2686 25.0702C46.8678 25.0702 45.5933 25.3965 44.4898 26.0456C39.7918 28.8281 38.7395 37.4982 41.1653 48.3789C30.765 51.6772 24 56.9509 24 62.5088C24 68.0877 30.7992 73.3754 41.2303 76.6491C38.8249 87.5719 39.8978 96.2561 44.6059 99.0351C45.6993 99.6912 46.9634 100 48.3711 100C52.9665 100 58.9867 96.6316 65.0718 90.793C71.1534 96.5965 77.1736 99.9263 81.769 99.9263C83.1698 99.9263 84.4443 99.6105 85.5478 98.9614C90.2423 96.1825 91.2981 87.5123 88.8722 76.6281C99.235 73.3579 106 68.0737 106 62.5088C106 56.9298 99.2008 51.6421 88.7698 48.3614C91.1751 37.4491 90.1023 28.7579 85.3941 25.9754C84.3076 25.3298 83.0468 25.0035 81.6665 25ZM81.6494 28.8246V28.8456C82.4182 28.8456 83.0366 29 83.5559 29.2912C85.8314 30.6316 86.8188 35.7298 86.0501 42.2877C85.8656 43.9018 85.5649 45.6035 85.1959 47.3404C81.9159 46.5123 78.3421 45.8772 74.5803 45.4667C72.3253 42.2912 69.9849 39.407 67.6274 36.8807C73.0668 31.6877 78.1747 28.8386 81.6528 28.8281L81.6494 28.8246ZM48.2686 28.8947C51.7263 28.8947 56.8581 31.7298 62.3111 36.8947C59.9673 39.4211 57.6303 42.2877 55.4094 45.4632C51.6272 45.8737 48.0499 46.5088 44.7733 47.3509C44.3907 45.6316 44.1071 43.9684 43.9055 42.3684C43.1197 35.814 44.09 30.7193 46.345 29.3614C46.9942 29.0456 47.7117 28.9123 48.2686 28.8947ZM64.9487 39.5965C66.5033 41.2386 68.0579 43.0772 69.5954 45.0842C68.0921 45.014 66.5546 44.9649 65 44.9649C63.4283 44.9649 61.8738 45 60.3533 45.0842C61.8567 43.0772 63.4112 41.2421 64.9487 39.5965ZM65 48.8105C67.5283 48.8105 70.0464 48.9298 72.5235 49.1368C73.9107 51.1789 75.2637 53.3579 76.5654 55.6632C77.8364 57.9088 78.9913 60.1895 80.0436 62.4912C78.9913 64.7895 77.8364 67.0877 76.5825 69.3333C75.2842 71.6491 73.9414 73.8526 72.5508 75.8947C70.0635 76.1158 67.542 76.2386 65 76.2386C62.4717 76.2386 59.9536 76.1158 57.4765 75.9123C56.0893 73.8702 54.7363 71.6877 53.4346 69.386C52.1636 67.1403 51.0088 64.8596 49.9564 62.5579C50.9917 60.2526 52.1636 57.9509 53.4175 55.7018C54.7158 53.386 56.0586 51.1895 57.4492 49.1474C59.9365 48.9228 62.458 48.8035 65 48.8035V48.8105ZM52.5804 49.7018C51.7604 51.0246 50.9404 52.3789 50.1751 53.7719C49.4063 55.1403 48.6888 56.5158 48.0055 57.8912C47.1001 55.5895 46.3313 53.2947 45.6958 51.0596C47.8825 50.5333 50.1887 50.0632 52.5804 49.7018ZM77.3854 49.7018C79.76 50.0632 82.0492 50.5088 84.2393 51.0596C83.6243 53.2772 82.8555 55.5579 81.9843 57.8421C81.3009 56.4737 80.5834 55.0947 79.7976 53.7228C79.0288 52.3474 78.2088 51.007 77.3888 49.7018H77.3854ZM87.8507 52.0702C89.5043 52.5965 91.076 53.1825 92.5486 53.8175C98.4663 56.414 102.293 59.8105 102.293 62.5053C102.276 65.2 98.4492 68.6105 92.5315 71.1895C91.0965 71.8211 89.5248 72.3895 87.9019 72.9193C86.9452 69.5579 85.6948 66.0561 84.1436 62.4632C85.6811 58.8947 86.9111 55.4105 87.8507 52.0632V52.0702ZM42.0844 52.0842C43.0343 55.4526 44.2882 58.9509 45.8428 62.5403C44.3053 66.1088 43.0684 69.593 42.1323 72.9404C40.4786 72.414 38.9069 71.8246 37.4514 71.186C31.5338 68.6 27.7071 65.2 27.7071 62.5053C27.7071 59.8105 31.5338 56.393 37.4514 53.8175C38.8864 53.186 40.4581 52.6175 42.0844 52.0842ZM81.9843 67.1018C82.8897 69.407 83.6584 71.7053 84.2939 73.9368C82.1072 74.4877 79.7976 74.9544 77.4059 75.3053C78.2259 73.9895 79.0459 72.6316 79.8147 71.2421C80.5834 69.8737 81.2975 68.4772 81.9843 67.1018ZM48.0055 67.1719C48.6888 68.5474 49.4063 69.9193 50.1922 71.2947C50.978 72.6632 51.7809 74.0035 52.6009 75.3053C50.2263 74.9474 47.9372 74.4982 45.7471 73.9509C46.3621 71.7404 47.1343 69.4526 48.0021 67.1684L48.0055 67.1719ZM85.2267 77.6526C85.6093 79.3825 85.91 81.0491 86.0945 82.6456C86.8803 89.2 85.91 94.2947 83.655 95.6561C83.1527 95.9719 82.5002 96.1053 81.7314 96.1053C78.2737 96.1053 73.1419 93.2737 67.6889 88.1053C70.0328 85.5789 72.3698 82.7158 74.5906 79.5439C78.3728 79.1298 81.9501 78.4947 85.2267 77.6526ZM44.8075 77.6877C48.0875 78.5088 51.6613 79.1439 55.4231 79.5544C57.6781 82.7298 60.0185 85.614 62.376 88.1368C56.9264 93.3404 51.8117 96.1895 48.3335 96.1895C47.5818 96.1719 46.9463 96.014 46.4441 95.7263C44.1686 94.393 43.1812 89.2912 43.9499 82.7333C44.1344 81.1193 44.4385 79.4211 44.8075 77.6877ZM60.3875 79.9333C61.8908 80.0035 63.4283 80.0526 64.9829 80.0526C66.5546 80.0526 68.1092 80.0175 69.6296 79.9333C68.1262 81.9403 66.5717 83.7754 65.0342 85.4246C63.4796 83.7754 61.925 81.9403 60.3875 79.9333Z" fill="white"/>
<defs>
<filter id="filter0_d_8_85" x="0" y="0" width="130" height="130" filterUnits="userSpaceOnUse" color-interpolation-filters="sRGB">
<feFlood flood-opacity="0" result="BackgroundImageFix"/>
<feColorMatrix in="SourceAlpha" type="matrix" values="0 0 0 0 0 0 0 0 0 0 0 0 0 0 0 0 0 0 127 0" result="hardAlpha"/>
<feOffset dy="4"/>
<feGaussianBlur stdDeviation="2"/>
<feComposite in2="hardAlpha" operator="out"/>
<feColorMatrix type="matrix" values="0 0 0 0 0 0 0 0 0 0 0 0 0 0 0 0 0 0 0.25 0"/>
<feBlend mode="normal" in2="BackgroundImageFix" result="effect1_dropShadow_8_85"/>
<feBlend mode="normal" in="SourceGraphic" in2="effect1_dropShadow_8_85" result="shape"/>
</filter>
<linearGradient id="paint0_linear_8_85" x1="14.5" y1="6" x2="115.5" y2="118.5" gradientUnits="userSpaceOnUse">
<stop stop-color="#61DAFB"/>
<stop offset="1" stop-color="#00A2CE"/>
</linearGradient>
</defs>
</svg>
