<svg width="130" height="130" viewBox="0 0 130 130" fill="none" xmlns="http://www.w3.org/2000/svg">
<g filter="url(#filter0_d_8_49)">
<rect x="4" width="122" height="122" rx="20" fill="url(#paint0_linear_8_49)"/>
</g>
<g clip-path="url(#clip0_8_49)">
<path d="M48.5293 17C47.477 17 46.4283 17 45.376 17.0073C44.4923 17.0147 43.605 17.0183 42.7213 17.044C42.2373 17.055 41.757 17.077 41.273 17.099C39.8213 17.1555 38.3748 17.3061 36.9427 17.55C35.034 17.8875 33.184 18.4988 31.45 19.365C27.9692 21.1356 25.1388 23.9635 23.365 27.4427C22.4667 29.2027 21.8983 31.0067 21.55 32.9427C21.209 34.8493 21.1027 36.7927 21.0513 38.7213C21.0276 39.606 21.0129 40.491 21.0073 41.376C21 42.4283 21 43.477 21 44.5293V77.4707C21 78.523 21 79.579 21.0073 80.6313C21.0147 81.5113 21.0257 82.395 21.0513 83.2787C21.1027 85.2073 21.209 87.1543 21.55 89.0573C21.8983 90.9933 22.4667 92.7973 23.365 94.5573C25.1367 98.038 27.9677 100.866 31.45 102.635C33.21 103.53 35.0067 104.102 36.9427 104.45C38.8493 104.791 40.7927 104.905 42.7213 104.956C43.605 104.982 44.4923 104.989 45.376 104.993C46.4283 105 47.477 105 48.5293 105H81.4707C82.523 105 83.5717 105 84.624 104.993C85.5077 104.989 86.395 104.982 87.2787 104.956C89.2173 104.933 91.1515 104.764 93.0647 104.45C94.9756 104.121 96.8268 103.51 98.5573 102.635C102.036 100.864 104.864 98.0362 106.635 94.5573C107.533 92.7973 108.102 90.9933 108.45 89.0573C108.791 87.1507 108.905 85.2073 108.956 83.2787C108.982 82.395 108.989 81.515 108.993 80.6313C109 79.579 109 78.523 109 77.4707V44.5293C109 43.477 109 42.4283 108.993 41.376C108.99 40.491 108.978 39.6061 108.956 38.7213C108.933 36.7851 108.764 34.8534 108.45 32.9427C108.122 31.0293 107.51 29.1756 106.635 27.4427C104.863 23.9644 102.036 21.1367 98.5573 19.365C96.8268 18.4904 94.9756 17.8787 93.0647 17.55C91.1515 17.2358 89.2173 17.0666 87.2787 17.044C86.3964 17.0227 85.5139 17.0104 84.6313 17.0073C83.579 17 82.523 17 81.4707 17H48.5293ZM70.6577 29.5033C85.7423 38.56 94.656 55.764 91.004 70.317C90.916 70.658 90.8207 70.9807 90.7253 71.3143L90.7327 71.318C98.2933 80.624 96.2327 90.5973 95.2647 88.7163C91.334 81.0677 84.0227 82.967 80.2753 84.892C79.9365 85.0932 79.593 85.2864 79.245 85.4713L79.1717 85.5153L79.1643 85.5227C71.4093 89.6403 60.9887 89.941 50.5203 85.442C41.9966 81.7485 34.7881 75.565 29.8403 67.7027C32.22 69.4627 34.7903 71.01 37.5293 72.2933C48.599 77.478 59.7163 77.1003 67.585 72.286C56.387 63.6767 47.037 52.4567 39.8687 43.367C38.506 41.7772 37.2737 40.0801 36.1837 38.2923C44.7637 46.1463 58.323 56.0023 63.1887 58.7377C52.8633 47.8293 43.7627 34.391 44.188 34.82C60.4533 51.21 75.4573 60.472 75.4573 60.472C76.022 60.7837 76.4473 61.0367 76.7773 61.253C77.089 60.4647 77.364 59.6507 77.5987 58.8037C80.1947 49.3143 77.2687 38.461 70.6577 29.4997V29.5033Z" fill="white"/>
</g>
<defs>
<filter id="filter0_d_8_49" x="0" y="0" width="130" height="130" filterUnits="userSpaceOnUse" color-interpolation-filters="sRGB">
<feFlood flood-opacity="0" result="BackgroundImageFix"/>
<feColorMatrix in="SourceAlpha" type="matrix" values="0 0 0 0 0 0 0 0 0 0 0 0 0 0 0 0 0 0 127 0" result="hardAlpha"/>
<feOffset dy="4"/>
<feGaussianBlur stdDeviation="2"/>
<feComposite in2="hardAlpha" operator="out"/>
<feColorMatrix type="matrix" values="0 0 0 0 0 0 0 0 0 0 0 0 0 0 0 0 0 0 0.25 0"/>
<feBlend mode="normal" in2="BackgroundImageFix" result="effect1_dropShadow_8_49"/>
<feBlend mode="normal" in="SourceGraphic" in2="effect1_dropShadow_8_49" result="shape"/>
</filter>
<linearGradient id="paint0_linear_8_49" x1="14.5" y1="6" x2="115.5" y2="118.5" gradientUnits="userSpaceOnUse">
<stop stop-color="#F05138"/>
<stop offset="1" stop-color="#8F2211"/>
</linearGradient>
<clipPath id="clip0_8_49">
<rect width="88" height="88" fill="white" transform="translate(21 17)"/>
</clipPath>
</defs>
</svg>
