<svg width="217" height="152" viewBox="0 0 217 152" fill="none" xmlns="http://www.w3.org/2000/svg">
<path d="M174 17.1H176.991C180.357 17.1 182.849 18.05 184.47 19.95C186.09 21.9767 186.9 25.5233 186.9 30.59V59.09C186.9 67.9567 190.701 73.53 198.304 75.81V76.19C190.701 78.47 186.9 84.0433 186.9 92.91V121.41C186.9 126.477 186.09 129.96 184.47 131.86C182.849 133.887 180.357 134.9 176.991 134.9H174V152H184.47C190.577 152 195.562 150.227 199.426 146.68C203.29 143.133 205.222 137.877 205.222 130.91V95.95C205.222 91.5167 206.032 88.4767 207.652 86.83C209.272 85.31 212.388 84.55 217 84.55V67.45C212.388 67.45 209.272 66.6267 207.652 64.98C206.032 63.46 205.222 60.4833 205.222 56.05V21.09C205.222 14.1233 203.29 8.86666 199.426 5.32C195.562 1.77333 190.577 -4.45048e-06 184.47 -4.45048e-06H174V17.1Z" fill="url(#paint0_linear_14_34)"/>
<path d="M43 17.1H40.0087C36.6435 17.1 34.1507 18.05 32.5304 19.95C30.9101 21.9767 30.1 25.5233 30.1 30.59V59.09C30.1 67.9567 26.2986 73.53 18.6957 75.81V76.19C26.2986 78.47 30.1 84.0433 30.1 92.91V121.41C30.1 126.477 30.9101 129.96 32.5304 131.86C34.1507 133.887 36.6435 134.9 40.0087 134.9H43V152H32.5304C26.4232 152 21.4377 150.227 17.5739 146.68C13.7101 143.133 11.7783 137.877 11.7783 130.91V95.95C11.7783 91.5167 10.9681 88.4767 9.34783 86.83C7.72754 85.31 4.6116 84.55 1.05734e-07 84.55V67.45C4.6116 67.45 7.72754 66.6267 9.34783 64.98C10.9681 63.46 11.7783 60.4833 11.7783 56.05V21.09C11.7783 14.1233 13.7101 8.86666 17.5739 5.32C21.4377 1.77333 26.4232 -4.45048e-06 32.5304 -4.45048e-06H43V17.1Z" fill="url(#paint1_linear_14_34)"/>
<path d="M151.196 126.276C144.535 126.276 138.814 124.813 134.036 121.888C129.286 118.963 125.622 114.922 123.044 109.767C120.496 104.583 119.221 98.6165 119.221 91.8683C119.221 85.0911 120.525 79.1104 123.131 73.9261C125.738 68.7129 129.416 64.6582 134.166 61.7619C138.945 58.8367 144.592 57.3741 151.109 57.3741C156.525 57.3741 161.318 58.3733 165.489 60.3717C169.688 62.3412 173.033 65.136 175.524 68.7563C177.828 72.0785 179.215 75.9211 179.685 80.2841C179.748 80.8614 179.287 81.355 178.707 81.355H165.579C165.098 81.355 164.689 81.012 164.576 80.5447C163.889 77.6874 162.499 75.2785 160.406 73.3179C158.147 71.1457 155.12 70.0596 151.326 70.0596C148.111 70.0596 145.288 70.9285 142.855 72.6662C140.422 74.375 138.525 76.8368 137.164 80.0517C135.831 83.2665 135.165 87.1185 135.165 91.6076C135.165 96.1547 135.831 100.065 137.164 103.337C138.496 106.581 140.364 109.086 142.768 110.853C145.201 112.591 148.053 113.46 151.326 113.46C153.643 113.46 155.714 113.025 157.539 112.156C159.392 111.259 160.942 109.97 162.187 108.29C163.291 106.801 164.087 105.029 164.577 102.972C164.688 102.505 165.097 102.164 165.576 102.164H178.699C179.282 102.164 179.744 102.663 179.677 103.243C179.186 107.525 177.83 111.351 175.611 114.72C173.207 118.34 169.934 121.178 165.793 123.234C161.651 125.262 156.786 126.276 151.196 126.276Z" fill="url(#paint2_linear_14_34)"/>
<path d="M44 120.972C43.4477 120.972 43 120.525 43 119.972V33C43 32.4477 43.4477 32 44 32H98.9979C99.5501 32 99.9979 32.4477 99.9979 33V44.5109C99.9979 45.0632 99.5501 45.5109 98.9979 45.5109H59.1175V69.6655H95.0879C95.6402 69.6655 96.0879 70.1132 96.0879 70.6655V82.1764C96.0879 82.7287 95.6402 83.1764 95.0879 83.1764H59.1175V119.972C59.1175 120.525 58.6698 120.972 58.1175 120.972H44Z" fill="url(#paint3_linear_14_34)"/>
<path d="M118.972 22.3596L129.977 22L101.466 128.988L90.4614 129.348L104.717 75.8536L118.972 22.3596Z" fill="url(#paint4_linear_14_34)"/>
<defs>
<linearGradient id="paint0_linear_14_34" x1="195.5" y1="152" x2="195.5" y2="0" gradientUnits="userSpaceOnUse">
<stop stop-color="#171F32"/>
<stop offset="1" stop-color="#3B82F6"/>
</linearGradient>
<linearGradient id="paint1_linear_14_34" x1="21.5" y1="152" x2="21.5" y2="0" gradientUnits="userSpaceOnUse">
<stop stop-color="#171F32"/>
<stop offset="1" stop-color="#3B82F6"/>
</linearGradient>
<linearGradient id="paint2_linear_14_34" x1="149.502" y1="57.3741" x2="149.502" y2="126.276" gradientUnits="userSpaceOnUse">
<stop stop-color="#3B82F6"/>
<stop offset="1" stop-color="#171F32"/>
</linearGradient>
<linearGradient id="paint3_linear_14_34" x1="71.4989" y1="32" x2="71.4989" y2="120.972" gradientUnits="userSpaceOnUse">
<stop stop-color="#3B82F6"/>
<stop offset="1" stop-color="#171F32"/>
</linearGradient>
<linearGradient id="paint4_linear_14_34" x1="108.489" y1="22.7021" x2="111.95" y2="128.646" gradientUnits="userSpaceOnUse">
<stop stop-color="#3B82F6"/>
<stop offset="1" stop-color="#171F32"/>
</linearGradient>
</defs>
</svg>
